<svg width="1249" height="829" viewBox="0 0 1249 829" fill="none" xmlns="http://www.w3.org/2000/svg">
<rect x="35" y="39" width="1214" height="790" rx="41" fill="#2F3032"/>
<rect x="35" y="39" width="1214" height="790" rx="41" fill="#2E3227"/>
<rect x="2" y="2" width="1218" height="794" rx="43" fill="#F0E9E0"/>
<rect x="2" y="2" width="1218" height="794" rx="43" fill="#F0E9E0"/>
<rect x="2" y="2" width="1218" height="794" rx="43" stroke="#303030" stroke-width="4"/>
<rect x="472" y="747" width="7" height="21" rx="3.5" fill="#303030"/>
<rect x="486" y="754" width="7" height="21" rx="3.5" transform="rotate(90 486 754)" fill="#303030"/>
<rect x="40" y="100" width="7" height="21" rx="3.5" fill="#303030"/>
<rect x="54" y="107" width="7" height="21" rx="3.5" transform="rotate(90 54 107)" fill="#303030"/>
<line x1="4" y1="79.0001" x2="1218" y2="79" stroke="#303030" stroke-width="4"/>
<line x1="4" y1="141" x2="1218" y2="141" stroke="#303030" stroke-width="4"/>
<line x1="438" y1="720" x2="1218" y2="720" stroke="#303030" stroke-width="4"/>
<line x1="440" y1="81" x2="440" y2="794" stroke="#303030" stroke-width="4"/>
<circle cx="55.5" cy="43.5" r="14.5" fill="#303030" stroke="#303030" stroke-width="4"/>
<circle cx="103.5" cy="45.5" r="14.5" fill="#303030" stroke="#303030" stroke-width="4"/>
<circle cx="149.5" cy="45.5" r="14.5" fill="#303030" stroke="#303030" stroke-width="4"/>
<circle cx="101.5" cy="43.5" r="14.5" fill="#F0E9E0" stroke="#303030" stroke-width="4"/>
<circle cx="147.5" cy="43.5" r="14.5" fill="#F0E9E0" stroke="#303030" stroke-width="4"/>
<rect x="1073" y="740" width="103" height="31" rx="9" fill="#303030"/>
<path d="M1111.18 756.2C1111.23 756.413 1111.26 756.68 1111.26 757C1111.26 757.307 1111.23 757.573 1111.18 757.8C1111.23 758.013 1111.26 758.28 1111.26 758.6C1111.26 758.907 1111.23 759.173 1111.18 759.4H1110.38C1110.43 759.613 1110.46 759.88 1110.46 760.2C1110.46 760.507 1110.43 760.773 1110.38 761H1105.58C1105.53 760.773 1105.5 760.507 1105.5 760.2C1105.5 759.88 1105.53 759.613 1105.58 759.4H1104.78C1104.73 759.173 1104.7 758.907 1104.7 758.6C1104.7 758.28 1104.73 758.013 1104.78 757.8H1106.38C1106.43 758.013 1106.46 758.28 1106.46 758.6C1106.46 758.907 1106.43 759.173 1106.38 759.4H1109.58C1109.53 759.173 1109.5 758.907 1109.5 758.6C1109.5 758.28 1109.53 758.013 1109.58 757.8C1109.53 757.573 1109.5 757.307 1109.5 757C1109.5 756.68 1109.53 756.413 1109.58 756.2H1105.58C1105.53 755.973 1105.5 755.707 1105.5 755.4C1105.5 755.08 1105.53 754.813 1105.58 754.6H1104.78C1104.73 754.373 1104.7 754.107 1104.7 753.8C1104.7 753.48 1104.73 753.213 1104.78 753C1104.73 752.773 1104.7 752.507 1104.7 752.2C1104.7 751.88 1104.73 751.613 1104.78 751.4H1105.58C1105.53 751.173 1105.5 750.907 1105.5 750.6C1105.5 750.28 1105.53 750.013 1105.58 749.8H1110.38C1110.43 750.013 1110.46 750.28 1110.46 750.6C1110.46 750.907 1110.43 751.173 1110.38 751.4H1111.18C1111.23 751.613 1111.26 751.88 1111.26 752.2C1111.26 752.507 1111.23 752.773 1111.18 753H1109.58C1109.53 752.773 1109.5 752.507 1109.5 752.2C1109.5 751.88 1109.53 751.613 1109.58 751.4H1106.38C1106.43 751.613 1106.46 751.88 1106.46 752.2C1106.46 752.507 1106.43 752.773 1106.38 753C1106.43 753.213 1106.46 753.48 1106.46 753.8C1106.46 754.107 1106.43 754.373 1106.38 754.6H1110.38C1110.43 754.813 1110.46 755.08 1110.46 755.4C1110.46 755.707 1110.43 755.973 1110.38 756.2H1111.18ZM1115.19 756.2C1115.24 756.413 1115.27 756.68 1115.27 757C1115.27 757.307 1115.24 757.573 1115.19 757.8C1115.24 758.013 1115.27 758.28 1115.27 758.6C1115.27 758.907 1115.24 759.173 1115.19 759.4H1118.39C1118.44 759.613 1118.47 759.88 1118.47 760.2C1118.47 760.507 1118.44 760.773 1118.39 761H1113.59C1113.53 760.773 1113.51 760.507 1113.51 760.2C1113.51 759.88 1113.53 759.613 1113.59 759.4C1113.53 759.173 1113.51 758.907 1113.51 758.6C1113.51 758.28 1113.53 758.013 1113.59 757.8C1113.53 757.573 1113.51 757.307 1113.51 757C1113.51 756.68 1113.53 756.413 1113.59 756.2C1113.53 755.973 1113.51 755.707 1113.51 755.4C1113.51 755.08 1113.53 754.813 1113.59 754.6C1113.53 754.373 1113.51 754.107 1113.51 753.8C1113.51 753.48 1113.53 753.213 1113.59 753C1113.53 752.773 1113.51 752.507 1113.51 752.2C1113.51 751.88 1113.53 751.613 1113.59 751.4C1113.53 751.173 1113.51 750.907 1113.51 750.6C1113.51 750.28 1113.53 750.013 1113.59 749.8H1118.39C1118.44 750.013 1118.47 750.28 1118.47 750.6C1118.47 750.907 1118.44 751.173 1118.39 751.4H1115.19C1115.24 751.613 1115.27 751.88 1115.27 752.2C1115.27 752.507 1115.24 752.773 1115.19 753C1115.24 753.213 1115.27 753.48 1115.27 753.8C1115.27 754.107 1115.24 754.373 1115.19 754.6H1118.39C1118.44 754.813 1118.47 755.08 1118.47 755.4C1118.47 755.707 1118.44 755.973 1118.39 756.2H1115.19ZM1127.2 751.4C1127.25 751.613 1127.28 751.88 1127.28 752.2C1127.28 752.507 1127.25 752.773 1127.2 753C1127.25 753.213 1127.28 753.48 1127.28 753.8C1127.28 754.107 1127.25 754.373 1127.2 754.6C1127.25 754.813 1127.28 755.08 1127.28 755.4C1127.28 755.707 1127.25 755.973 1127.2 756.2C1127.25 756.413 1127.28 756.68 1127.28 757C1127.28 757.307 1127.25 757.573 1127.2 757.8C1127.25 758.013 1127.28 758.28 1127.28 758.6C1127.28 758.907 1127.25 759.173 1127.2 759.4C1127.25 759.613 1127.28 759.88 1127.28 760.2C1127.28 760.507 1127.25 760.773 1127.2 761H1125.6C1125.54 760.773 1125.52 760.507 1125.52 760.2C1125.52 759.88 1125.54 759.613 1125.6 759.4H1124.6C1124.54 759.173 1124.52 758.907 1124.52 758.6C1124.52 758.28 1124.54 758.013 1124.6 757.8H1124C1123.94 757.573 1123.92 757.307 1123.92 757C1123.92 756.68 1123.94 756.413 1124 756.2H1123.2C1123.14 755.973 1123.12 755.707 1123.12 755.4C1123.12 755.08 1123.14 754.813 1123.2 754.6H1122.4C1122.45 754.813 1122.48 755.08 1122.48 755.4C1122.48 755.707 1122.45 755.973 1122.4 756.2C1122.45 756.413 1122.48 756.68 1122.48 757C1122.48 757.307 1122.45 757.573 1122.4 757.8C1122.45 758.013 1122.48 758.28 1122.48 758.6C1122.48 758.907 1122.45 759.173 1122.4 759.4C1122.45 759.613 1122.48 759.88 1122.48 760.2C1122.48 760.507 1122.45 760.773 1122.4 761H1120.8C1120.74 760.773 1120.72 760.507 1120.72 760.2C1120.72 759.88 1120.74 759.613 1120.8 759.4C1120.74 759.173 1120.72 758.907 1120.72 758.6C1120.72 758.28 1120.74 758.013 1120.8 757.8C1120.74 757.573 1120.72 757.307 1120.72 757C1120.72 756.68 1120.74 756.413 1120.8 756.2C1120.74 755.973 1120.72 755.707 1120.72 755.4C1120.72 755.08 1120.74 754.813 1120.8 754.6C1120.74 754.373 1120.72 754.107 1120.72 753.8C1120.72 753.48 1120.74 753.213 1120.8 753C1120.74 752.773 1120.72 752.507 1120.72 752.2C1120.72 751.88 1120.74 751.613 1120.8 751.4C1120.74 751.173 1120.72 750.907 1120.72 750.6C1120.72 750.28 1120.74 750.013 1120.8 749.8H1122.8C1122.85 750.013 1122.88 750.28 1122.88 750.6C1122.88 750.907 1122.85 751.173 1122.8 751.4H1123.4C1123.45 751.613 1123.48 751.88 1123.48 752.2C1123.48 752.507 1123.45 752.773 1123.4 753H1124C1124.05 753.213 1124.08 753.48 1124.08 753.8C1124.08 754.107 1124.05 754.373 1124 754.6H1124.8C1124.85 754.813 1124.88 755.08 1124.88 755.4C1124.88 755.707 1124.85 755.973 1124.8 756.2H1125.6C1125.54 755.973 1125.52 755.707 1125.52 755.4C1125.52 755.08 1125.54 754.813 1125.6 754.6C1125.54 754.373 1125.52 754.107 1125.52 753.8C1125.52 753.48 1125.54 753.213 1125.6 753C1125.54 752.773 1125.52 752.507 1125.52 752.2C1125.52 751.88 1125.54 751.613 1125.6 751.4C1125.54 751.173 1125.52 750.907 1125.52 750.6C1125.52 750.28 1125.54 750.013 1125.6 749.8H1127.2C1127.25 750.013 1127.28 750.28 1127.28 750.6C1127.28 750.907 1127.25 751.173 1127.2 751.4ZM1135.2 754.6C1135.26 754.813 1135.28 755.08 1135.28 755.4C1135.28 755.707 1135.26 755.973 1135.2 756.2C1135.26 756.413 1135.28 756.68 1135.28 757C1135.28 757.307 1135.26 757.573 1135.2 757.8H1134.4C1134.46 758.013 1134.48 758.28 1134.48 758.6C1134.48 758.907 1134.46 759.173 1134.4 759.4H1133.6C1133.66 759.613 1133.68 759.88 1133.68 760.2C1133.68 760.507 1133.66 760.773 1133.6 761H1128.8C1128.75 760.773 1128.72 760.507 1128.72 760.2C1128.72 759.88 1128.75 759.613 1128.8 759.4C1128.75 759.173 1128.72 758.907 1128.72 758.6C1128.72 758.28 1128.75 758.013 1128.8 757.8C1128.75 757.573 1128.72 757.307 1128.72 757C1128.72 756.68 1128.75 756.413 1128.8 756.2C1128.75 755.973 1128.72 755.707 1128.72 755.4C1128.72 755.08 1128.75 754.813 1128.8 754.6C1128.75 754.373 1128.72 754.107 1128.72 753.8C1128.72 753.48 1128.75 753.213 1128.8 753C1128.75 752.773 1128.72 752.507 1128.72 752.2C1128.72 751.88 1128.75 751.613 1128.8 751.4C1128.75 751.173 1128.72 750.907 1128.72 750.6C1128.72 750.28 1128.75 750.013 1128.8 749.8H1133.6C1133.66 750.013 1133.68 750.28 1133.68 750.6C1133.68 750.907 1133.66 751.173 1133.6 751.4H1134.4C1134.46 751.613 1134.48 751.88 1134.48 752.2C1134.48 752.507 1134.46 752.773 1134.4 753H1135.2C1135.26 753.213 1135.28 753.48 1135.28 753.8C1135.28 754.107 1135.26 754.373 1135.2 754.6ZM1133.6 757.8C1133.55 757.573 1133.52 757.307 1133.52 757C1133.52 756.68 1133.55 756.413 1133.6 756.2C1133.55 755.973 1133.52 755.707 1133.52 755.4C1133.52 755.08 1133.55 754.813 1133.6 754.6C1133.55 754.373 1133.52 754.107 1133.52 753.8C1133.52 753.48 1133.55 753.213 1133.6 753H1132.8C1132.75 752.773 1132.72 752.507 1132.72 752.2C1132.72 751.88 1132.75 751.613 1132.8 751.4H1130.4C1130.46 751.613 1130.48 751.88 1130.48 752.2C1130.48 752.507 1130.46 752.773 1130.4 753C1130.46 753.213 1130.48 753.48 1130.48 753.8C1130.48 754.107 1130.46 754.373 1130.4 754.6C1130.46 754.813 1130.48 755.08 1130.48 755.4C1130.48 755.707 1130.46 755.973 1130.4 756.2C1130.46 756.413 1130.48 756.68 1130.48 757C1130.48 757.307 1130.46 757.573 1130.4 757.8C1130.46 758.013 1130.48 758.28 1130.48 758.6C1130.48 758.907 1130.46 759.173 1130.4 759.4H1132.8C1132.75 759.173 1132.72 758.907 1132.72 758.6C1132.72 758.28 1132.75 758.013 1132.8 757.8H1133.6ZM1140.81 751.4C1140.87 751.613 1140.89 751.88 1140.89 752.2C1140.89 752.507 1140.87 752.773 1140.81 753C1140.87 753.213 1140.89 753.48 1140.89 753.8C1140.89 754.107 1140.87 754.373 1140.81 754.6C1140.87 754.813 1140.89 755.08 1140.89 755.4C1140.89 755.707 1140.87 755.973 1140.81 756.2C1140.87 756.413 1140.89 756.68 1140.89 757C1140.89 757.307 1140.87 757.573 1140.81 757.8H1139.21C1139.16 757.573 1139.13 757.307 1139.13 757C1139.13 756.68 1139.16 756.413 1139.21 756.2C1139.16 755.973 1139.13 755.707 1139.13 755.4C1139.13 755.08 1139.16 754.813 1139.21 754.6C1139.16 754.373 1139.13 754.107 1139.13 753.8C1139.13 753.48 1139.16 753.213 1139.21 753C1139.16 752.773 1139.13 752.507 1139.13 752.2C1139.13 751.88 1139.16 751.613 1139.21 751.4C1139.16 751.173 1139.13 750.907 1139.13 750.6C1139.13 750.28 1139.16 750.013 1139.21 749.8H1140.81C1140.87 750.013 1140.89 750.28 1140.89 750.6C1140.89 750.907 1140.87 751.173 1140.81 751.4ZM1140.81 759.4C1140.87 759.613 1140.89 759.88 1140.89 760.2C1140.89 760.507 1140.87 760.773 1140.81 761H1139.21C1139.16 760.773 1139.13 760.507 1139.13 760.2C1139.13 759.88 1139.16 759.613 1139.21 759.4H1140.81Z" fill="#F0E9E0"/>
</svg>
