<svg width="1573" height="253" viewBox="0 0 1573 253" fill="none" xmlns="http://www.w3.org/2000/svg">
<path d="M82.7113 203.88C49.8313 203.88 23.1913 196.44 0.151251 181.08L14.7913 151.8C34.9513 165 57.7513 171.96 81.9913 171.96C108.151 171.96 121.831 165.72 121.831 153.96C121.831 142.92 113.431 139.32 80.3113 136.44C26.0713 131.64 7.59125 118.92 7.59125 86.04C7.59125 53.88 34.9513 34.92 81.2713 34.92C109.111 34.92 132.151 41.4 151.351 54.36L137.911 82.68C121.831 72.12 102.871 66.84 82.7113 66.84C59.4313 66.84 45.7513 73.32 45.7513 84.36C45.7513 95.4 54.1513 99 87.2713 101.88C141.511 106.68 159.991 119.4 159.991 152.28C159.991 186.12 133.351 203.88 82.7113 203.88ZM208.728 243.6L229.328 222H278.728L298.328 243.6H208.728ZM202.928 145.4L224.328 166.2V215.2L202.928 234.8V145.4ZM225.928 152.6C220.995 148.733 216.328 145.067 211.928 141.6L225.928 131H280.528L294.528 141.6L280.528 152.6H225.928ZM208.528 40.4H297.728L278.328 62H228.928L208.528 40.4ZM202.328 138.4V49L223.728 68.4V118L202.328 138.4ZM403.097 201H340.699V190.653H361.456V45.0381H340.699V34.6279H444.674V45.0381H455.084V55.4482H465.494V107.436H455.084V117.846H444.674V128.256H392.687V117.846H434.264V107.436H444.674V55.4482H434.264V45.0381H382.276V190.653H403.097V201ZM643.071 37.8V69.96H582.591V201H545.151V69.96H484.671V37.8H643.071ZM830.373 33.48C830.373 62.28 776.373 88.44 739.173 97.08C741.813 104.04 749.493 106.68 763.413 106.68H770.133L769.893 109.8H763.893C702.453 109.8 684.213 158.52 684.213 177.72C684.213 193.32 692.133 200.76 708.693 200.76C749.253 200.76 794.373 164.52 794.373 134.28C794.373 125.16 788.613 119.64 779.253 119.64C756.453 119.64 738.693 141.24 729.813 162.36L727.173 161.64C736.293 140.04 755.253 117 779.733 117C790.533 117 798.933 123 798.933 134.52C798.933 165 750.933 203.4 708.453 203.4C683.013 203.4 671.013 194.04 671.013 175.56C671.013 146.76 703.173 114.6 749.733 108.12V107.64C741.333 106.2 734.613 103.56 730.773 98.76C725.733 99.72 720.933 100.2 717.093 100.2C696.693 100.2 682.773 92.76 682.773 75.96C682.773 50.28 713.733 15 764.613 0.119997L765.333 2.51999C715.893 17.16 687.333 51.96 687.333 75.72C687.333 91.32 699.333 97.32 717.333 97.32C720.693 97.32 724.773 96.84 729.093 96.36C727.893 93.96 727.173 91.32 727.173 88.2C727.173 59.4 774.933 18.6 811.413 18.6C823.653 18.6 830.373 24.12 830.373 33.48ZM738.453 94.44C773.973 86.04 825.573 60.84 825.573 33.24C825.573 26.52 821.493 21.24 810.933 21.24C778.773 21.24 738.213 61.8 738.213 91.08C738.213 92.28 738.213 93.24 738.453 94.44ZM890.863 201H842.875V191.449H862.035V57.0352H842.875V47.4258H890.863V85.8047H900.473V114.633H910.023V143.402H919.633V172.23H929.242V201H910.023V172.23H900.473V143.402H890.863V114.633H881.254V85.8047H871.645V191.449H890.863V201ZM1006.06 201H948.461V191.449H967.621V85.8047H958.07V47.4258H1006.06V57.0352H986.84V191.449H1006.06V201ZM958.07 114.633H948.461V85.8047H958.07V114.633ZM948.461 143.402H938.852V114.633H948.461V143.402ZM938.852 172.23H929.242V143.402H938.852V172.23ZM1058.09 252.12L1082.81 226.2H1142.09L1165.37 252.12H1058.09ZM1050.89 134.28L1076.81 159.24V218.04L1050.89 241.56V134.28ZM1173.05 241.56L1147.13 216.84V157.8L1173.05 134.28V241.56ZM1078.73 142.92C1073.13 138.44 1067.45 134.04 1061.69 129.72L1078.73 117H1144.25L1161.05 129.72L1144.25 142.92H1078.73ZM1057.85 8.27999H1165.13L1141.37 34.2H1082.57L1057.85 8.27999ZM1050.17 125.88V18.6L1076.09 41.88V101.4L1050.17 125.88ZM1172.33 18.6V125.88L1146.41 102.6V43.32L1172.33 18.6ZM1386.12 33.48C1386.12 62.28 1332.12 88.44 1294.92 97.08C1297.56 104.04 1305.24 106.68 1319.16 106.68H1325.88L1325.64 109.8H1319.64C1258.2 109.8 1239.96 158.52 1239.96 177.72C1239.96 193.32 1247.88 200.76 1264.44 200.76C1305 200.76 1350.12 164.52 1350.12 134.28C1350.12 125.16 1344.36 119.64 1335 119.64C1312.2 119.64 1294.44 141.24 1285.56 162.36L1282.92 161.64C1292.04 140.04 1311 117 1335.48 117C1346.28 117 1354.68 123 1354.68 134.52C1354.68 165 1306.68 203.4 1264.2 203.4C1238.76 203.4 1226.76 194.04 1226.76 175.56C1226.76 146.76 1258.92 114.6 1305.48 108.12V107.64C1297.08 106.2 1290.36 103.56 1286.52 98.76C1281.48 99.72 1276.68 100.2 1272.84 100.2C1252.44 100.2 1238.52 92.76 1238.52 75.96C1238.52 50.28 1269.48 15 1320.36 0.119997L1321.08 2.51999C1271.64 17.16 1243.08 51.96 1243.08 75.72C1243.08 91.32 1255.08 97.32 1273.08 97.32C1276.44 97.32 1280.52 96.84 1284.84 96.36C1283.64 93.96 1282.92 91.32 1282.92 88.2C1282.92 59.4 1330.68 18.6 1367.16 18.6C1379.4 18.6 1386.12 24.12 1386.12 33.48ZM1294.2 94.44C1329.72 86.04 1381.32 60.84 1381.32 33.24C1381.32 26.52 1377.24 21.24 1366.68 21.24C1334.52 21.24 1293.96 61.8 1293.96 91.08C1293.96 92.28 1293.96 93.24 1294.2 94.44ZM1572.86 201H1528.7L1488.14 141H1446.86V201H1409.42V37.8H1506.62C1544.54 37.8 1564.94 55.8 1564.94 89.4C1564.94 115.32 1552.94 131.88 1529.9 138.12L1572.86 201ZM1446.86 69.96V108.84H1502.54C1519.1 108.84 1526.78 102.6 1526.78 89.4C1526.78 76.2 1519.1 69.96 1502.54 69.96H1446.86Z" fill="white"/>
<path d="M0.151251 181.08L-1.6376 180.186L-2.42719 181.765L-0.95815 182.744L0.151251 181.08ZM14.7913 151.8L15.8868 150.127L14.0072 148.896L13.0024 150.906L14.7913 151.8ZM80.3113 136.44L80.1349 138.432L80.138 138.432L80.3113 136.44ZM151.351 54.36L153.158 55.2175L153.895 53.6642L152.47 52.7023L151.351 54.36ZM137.911 82.68L136.813 84.3517L138.733 85.6126L139.718 83.5375L137.911 82.68ZM87.2713 101.88L87.4476 99.8878L87.4445 99.8875L87.2713 101.88ZM82.7113 201.88C50.157 201.88 23.919 194.521 1.26065 179.416L-0.95815 182.744C22.4635 198.359 49.5055 205.88 82.7113 205.88V201.88ZM1.9401 181.974L16.5801 152.694L13.0024 150.906L-1.6376 180.186L1.9401 181.974ZM13.6957 153.473C34.1747 166.882 57.3542 173.96 81.9913 173.96V169.96C58.1483 169.96 35.7278 163.118 15.8868 150.127L13.6957 153.473ZM81.9913 173.96C95.1733 173.96 105.471 172.396 112.546 169.192C116.104 167.58 118.935 165.515 120.881 162.939C122.845 160.339 123.831 157.317 123.831 153.96H119.831C119.831 156.483 119.107 158.651 117.689 160.528C116.252 162.43 114.028 164.13 110.896 165.548C104.592 168.404 94.9692 169.96 81.9913 169.96V173.96ZM123.831 153.96C123.831 150.947 123.257 148.22 121.659 145.852C120.069 143.493 117.613 141.712 114.271 140.298C107.693 137.515 96.9958 135.883 80.4845 134.448L80.138 138.432C96.7467 139.877 106.81 141.485 112.712 143.982C115.609 145.208 117.324 146.577 118.343 148.088C119.356 149.59 119.831 151.453 119.831 153.96H123.831ZM80.4876 134.448C53.3953 132.05 35.684 127.693 24.7494 120.125C14.0506 112.721 9.59125 102.048 9.59125 86.04H5.59125C5.59125 102.912 10.3719 115.039 22.4731 123.415C34.3385 131.627 52.9872 136.03 80.135 138.432L80.4876 134.448ZM9.59125 86.04C9.59125 70.6124 16.1125 58.4479 28.2011 50.0634C40.3772 41.6182 58.3445 36.92 81.2713 36.92V32.92C57.8781 32.92 39.0053 37.7018 25.9214 46.7766C12.75 55.9121 5.59125 69.3076 5.59125 86.04H9.59125ZM81.2713 36.92C108.786 36.92 131.419 43.3188 150.232 56.0177L152.47 52.7023C132.883 39.4812 109.436 32.92 81.2713 32.92V36.92ZM149.544 53.5025L136.104 81.8225L139.718 83.5375L153.158 55.2175L149.544 53.5025ZM139.009 81.0083C122.573 70.2145 103.224 64.84 82.7113 64.84V68.84C102.518 68.84 121.089 74.0255 136.813 84.3517L139.009 81.0083ZM82.7113 64.84C70.9326 64.84 61.3555 66.4722 54.6447 69.6527C47.8816 72.8579 43.7513 77.8116 43.7513 84.36H47.7513C47.7513 79.8684 50.4609 76.062 56.3578 73.2673C62.307 70.4478 71.2099 68.84 82.7113 68.84V64.84ZM43.7513 84.36C43.7513 87.3733 44.326 90.1001 45.9231 92.4683C47.5139 94.8271 49.9692 96.6077 53.312 98.0219C59.8895 100.805 70.5867 102.437 87.098 103.872L87.4445 99.8875C70.8358 98.4433 60.773 96.8353 54.8705 94.3381C51.9733 93.1123 50.2586 91.7429 49.2394 90.2317C48.2265 88.7298 47.7513 86.8667 47.7513 84.36H43.7513ZM87.095 103.872C114.187 106.27 131.899 110.627 142.833 118.195C153.532 125.599 157.991 136.272 157.991 152.28H161.991C161.991 135.408 157.211 123.281 145.109 114.905C133.244 106.693 114.595 102.29 87.4476 99.8878L87.095 103.872ZM157.991 152.28C157.991 168.587 151.621 180.837 139.231 189.106C126.713 197.461 107.854 201.88 82.7113 201.88V205.88C108.209 205.88 127.989 201.419 141.452 192.434C155.042 183.363 161.991 169.813 161.991 152.28H157.991ZM208.728 243.6L207.281 242.22L204.057 245.6H208.728V243.6ZM229.328 222V220H228.472L227.881 220.62L229.328 222ZM278.728 222L280.209 220.656L279.614 220H278.728V222ZM298.328 243.6V245.6H302.844L299.809 242.256L298.328 243.6ZM202.928 145.4L204.322 143.966L200.928 140.667V145.4H202.928ZM224.328 166.2H226.328V165.355L225.722 164.766L224.328 166.2ZM224.328 215.2L225.679 216.675L226.328 216.08V215.2H224.328ZM202.928 234.8H200.928V239.344L204.279 236.275L202.928 234.8ZM225.928 152.6L224.694 154.174L225.238 154.6H225.928V152.6ZM211.928 141.6L210.721 140.005L208.656 141.569L210.69 143.171L211.928 141.6ZM225.928 131V129H225.256L224.721 129.405L225.928 131ZM280.528 131L281.735 129.405L281.2 129H280.528V131ZM294.528 141.6L295.764 143.173L297.803 141.571L295.735 140.005L294.528 141.6ZM280.528 152.6V154.6H281.22L281.764 154.173L280.528 152.6ZM208.528 40.4V38.4H203.888L207.074 41.7732L208.528 40.4ZM297.728 40.4L299.216 41.7364L302.213 38.4H297.728V40.4ZM278.328 62V64H279.22L279.816 63.3364L278.328 62ZM228.928 62L227.474 63.3732L228.066 64H228.928V62ZM202.328 138.4H200.328V143.07L203.708 139.848L202.328 138.4ZM202.328 49L203.671 47.5182L200.328 44.4874V49H202.328ZM223.728 68.4H225.728V67.5136L225.071 66.9182L223.728 68.4ZM223.728 118L225.108 119.448L225.728 118.857V118H223.728ZM210.175 244.98L230.775 223.38L227.881 220.62L207.281 242.22L210.175 244.98ZM229.328 224H278.728V220H229.328V224ZM277.247 223.344L296.847 244.944L299.809 242.256L280.209 220.656L277.247 223.344ZM298.328 241.6H208.728V245.6H298.328V241.6ZM201.534 146.834L222.934 167.634L225.722 164.766L204.322 143.966L201.534 146.834ZM222.328 166.2V215.2H226.328V166.2H222.328ZM222.977 213.725L201.577 233.325L204.279 236.275L225.679 216.675L222.977 213.725ZM204.928 234.8V145.4H200.928V234.8H204.928ZM227.162 151.026C222.23 147.16 217.564 143.495 213.166 140.029L210.69 143.171C215.092 146.639 219.76 150.307 224.694 154.174L227.162 151.026ZM213.135 143.195L227.135 132.595L224.721 129.405L210.721 140.005L213.135 143.195ZM225.928 133H280.528V129H225.928V133ZM279.321 132.595L293.321 143.195L295.735 140.005L281.735 129.405L279.321 132.595ZM293.292 140.027L279.292 151.027L281.764 154.173L295.764 143.173L293.292 140.027ZM280.528 150.6H225.928V154.6H280.528V150.6ZM208.528 42.4H297.728V38.4H208.528V42.4ZM296.24 39.0636L276.84 60.6636L279.816 63.3364L299.216 41.7364L296.24 39.0636ZM278.328 60H228.928V64H278.328V60ZM230.382 60.6267L209.982 39.0267L207.074 41.7732L227.474 63.3732L230.382 60.6267ZM204.328 138.4V49H200.328V138.4H204.328ZM200.985 50.4817L222.385 69.8817L225.071 66.9182L203.671 47.5182L200.985 50.4817ZM221.728 68.4V118H225.728V68.4H221.728ZM222.348 116.552L200.948 136.952L203.708 139.848L225.108 119.448L222.348 116.552ZM403.097 201V203H405.097V201H403.097ZM340.699 201H338.699V203H340.699V201ZM340.699 190.653V188.653H338.699V190.653H340.699ZM361.456 190.653V192.653H363.456V190.653H361.456ZM361.456 45.0381H363.456V43.0381H361.456V45.0381ZM340.699 45.0381H338.699V47.0381H340.699V45.0381ZM340.699 34.6279V32.6279H338.699V34.6279H340.699ZM444.674 34.6279H446.674V32.6279H444.674V34.6279ZM444.674 45.0381H442.674V47.0381H444.674V45.0381ZM455.084 45.0381H457.084V43.0381H455.084V45.0381ZM455.084 55.4482H453.084V57.4482H455.084V55.4482ZM465.494 55.4482H467.494V53.4482H465.494V55.4482ZM465.494 107.436V109.436H467.494V107.436H465.494ZM455.084 107.436V105.436H453.084V107.436H455.084ZM455.084 117.846V119.846H457.084V117.846H455.084ZM444.674 117.846V115.846H442.674V117.846H444.674ZM444.674 128.256V130.256H446.674V128.256H444.674ZM392.687 128.256H390.687V130.256H392.687V128.256ZM392.687 117.846V115.846H390.687V117.846H392.687ZM434.264 117.846V119.846H436.264V117.846H434.264ZM434.264 107.436V105.436H432.264V107.436H434.264ZM444.674 107.436V109.436H446.674V107.436H444.674ZM444.674 55.4482H446.674V53.4482H444.674V55.4482ZM434.264 55.4482H432.264V57.4482H434.264V55.4482ZM434.264 45.0381H436.264V43.0381H434.264V45.0381ZM382.276 45.0381V43.0381H380.276V45.0381H382.276ZM382.276 190.653H380.276V192.653H382.276V190.653ZM403.097 190.653H405.097V188.653H403.097V190.653ZM403.097 199H340.699V203H403.097V199ZM342.699 201V190.653H338.699V201H342.699ZM340.699 192.653H361.456V188.653H340.699V192.653ZM363.456 190.653V45.0381H359.456V190.653H363.456ZM361.456 43.0381H340.699V47.0381H361.456V43.0381ZM342.699 45.0381V34.6279H338.699V45.0381H342.699ZM340.699 36.6279H444.674V32.6279H340.699V36.6279ZM442.674 34.6279V45.0381H446.674V34.6279H442.674ZM444.674 47.0381H455.084V43.0381H444.674V47.0381ZM453.084 45.0381V55.4482H457.084V45.0381H453.084ZM455.084 57.4482H465.494V53.4482H455.084V57.4482ZM463.494 55.4482V107.436H467.494V55.4482H463.494ZM465.494 105.436H455.084V109.436H465.494V105.436ZM453.084 107.436V117.846H457.084V107.436H453.084ZM455.084 115.846H444.674V119.846H455.084V115.846ZM442.674 117.846V128.256H446.674V117.846H442.674ZM444.674 126.256H392.687V130.256H444.674V126.256ZM394.687 128.256V117.846H390.687V128.256H394.687ZM392.687 119.846H434.264V115.846H392.687V119.846ZM436.264 117.846V107.436H432.264V117.846H436.264ZM434.264 109.436H444.674V105.436H434.264V109.436ZM446.674 107.436V55.4482H442.674V107.436H446.674ZM444.674 53.4482H434.264V57.4482H444.674V53.4482ZM436.264 55.4482V45.0381H432.264V55.4482H436.264ZM434.264 43.0381H382.276V47.0381H434.264V43.0381ZM380.276 45.0381V190.653H384.276V45.0381H380.276ZM382.276 192.653H403.097V188.653H382.276V192.653ZM401.097 190.653V201H405.097V190.653H401.097ZM643.071 37.8H645.071V35.8H643.071V37.8ZM643.071 69.96V71.96H645.071V69.96H643.071ZM582.591 69.96V67.96H580.591V69.96H582.591ZM582.591 201V203H584.591V201H582.591ZM545.151 201H543.151V203H545.151V201ZM545.151 69.96H547.151V67.96H545.151V69.96ZM484.671 69.96H482.671V71.96H484.671V69.96ZM484.671 37.8V35.8H482.671V37.8H484.671ZM641.071 37.8V69.96H645.071V37.8H641.071ZM643.071 67.96H582.591V71.96H643.071V67.96ZM580.591 69.96V201H584.591V69.96H580.591ZM582.591 199H545.151V203H582.591V199ZM547.151 201V69.96H543.151V201H547.151ZM545.151 67.96H484.671V71.96H545.151V67.96ZM486.671 69.96V37.8H482.671V69.96H486.671ZM484.671 39.8H643.071V35.8H484.671V39.8ZM739.173 97.08L738.72 95.1318L736.491 95.6496L737.303 97.7893L739.173 97.08ZM770.133 106.68L772.127 106.833L772.292 104.68H770.133V106.68ZM769.893 109.8V111.8H771.745L771.887 109.953L769.893 109.8ZM729.813 162.36L729.286 164.29L730.977 164.751L731.656 163.135L729.813 162.36ZM727.173 161.64L725.33 160.862L724.441 162.968L726.646 163.57L727.173 161.64ZM749.733 108.12L750.008 110.101L751.733 109.861V108.12H749.733ZM749.733 107.64H751.733V105.954L750.07 105.669L749.733 107.64ZM730.773 98.76L732.334 97.5106L731.582 96.5699L730.398 96.7953L730.773 98.76ZM764.613 0.119997L766.528 -0.454698L765.957 -2.35711L764.051 -1.7996L764.613 0.119997ZM765.333 2.51999L765.9 4.43768L767.825 3.8678L767.248 1.9453L765.333 2.51999ZM729.093 96.36L729.313 98.3478L732.164 98.031L730.881 95.4656L729.093 96.36ZM738.453 94.44L736.491 94.8322L736.897 96.8629L738.913 96.3863L738.453 94.44ZM828.373 33.48C828.373 40.0357 825.298 46.6265 819.83 53.057C814.368 59.4807 806.642 65.593 797.671 71.1388C779.729 82.2301 757.137 90.8545 738.72 95.1318L739.625 99.0281C758.408 94.6655 781.416 85.8899 799.774 74.5412C808.953 68.867 817.052 62.4993 822.877 55.648C828.697 48.8035 832.373 41.3243 832.373 33.48H828.373ZM737.303 97.7893C738.859 101.892 741.922 104.661 746.346 106.357C750.68 108.019 756.371 108.68 763.413 108.68V104.68C756.534 104.68 751.425 104.021 747.779 102.623C744.223 101.259 742.126 99.2277 741.043 96.3707L737.303 97.7893ZM763.413 108.68H770.133V104.68H763.413V108.68ZM768.138 106.527L767.898 109.647L771.887 109.953L772.127 106.833L768.138 106.527ZM769.893 107.8H763.893V111.8H769.893V107.8ZM763.893 107.8C732.572 107.8 712.094 120.249 699.481 135.274C686.944 150.208 682.213 167.641 682.213 177.72H686.213C686.213 168.599 690.601 152.072 702.544 137.846C714.411 123.711 733.773 111.8 763.893 111.8V107.8ZM682.213 177.72C682.213 185.836 684.276 192.223 688.872 196.547C693.443 200.847 700.156 202.76 708.693 202.76V198.76C700.669 198.76 695.142 196.953 691.613 193.633C688.109 190.337 686.213 185.204 686.213 177.72H682.213ZM708.693 202.76C729.523 202.76 751.366 193.479 767.978 180.433C784.515 167.446 796.373 150.311 796.373 134.28H792.373C792.373 148.489 781.67 164.594 765.507 177.287C749.419 189.921 728.422 198.76 708.693 198.76V202.76ZM796.373 134.28C796.373 129.29 794.786 125.07 791.712 122.101C788.646 119.141 784.323 117.64 779.253 117.64V121.64C783.542 121.64 786.779 122.899 788.933 124.979C791.079 127.05 792.373 130.15 792.373 134.28H796.373ZM779.253 117.64C767.184 117.64 756.574 123.362 747.93 131.635C739.289 139.905 732.489 150.833 727.969 161.585L731.656 163.135C736.016 152.767 742.536 142.335 750.695 134.525C758.851 126.718 768.521 121.64 779.253 121.64V117.64ZM730.339 160.43L727.699 159.71L726.646 163.57L729.286 164.29L730.339 160.43ZM729.015 162.418C733.491 151.817 740.368 140.905 749.067 132.673C757.763 124.444 768.156 119 779.733 119V115C766.829 115 755.502 121.076 746.318 129.767C737.137 138.455 729.974 149.863 725.33 160.862L729.015 162.418ZM779.733 119C784.781 119 789.082 120.403 792.085 122.962C795.047 125.486 796.933 129.287 796.933 134.52H800.933C800.933 128.233 798.618 123.274 794.68 119.918C790.783 116.597 785.484 115 779.733 115V119ZM796.933 134.52C796.933 141.627 794.126 149.363 789.096 157.046C784.075 164.714 776.911 172.214 768.398 178.809C751.34 192.023 729.139 201.4 708.453 201.4V205.4C730.246 205.4 753.285 195.577 770.847 181.971C779.644 175.156 787.135 167.341 792.442 159.237C797.739 151.147 800.933 142.653 800.933 134.52H796.933ZM708.453 201.4C695.917 201.4 687.071 199.083 681.395 194.812C675.83 190.625 673.013 184.328 673.013 175.56H669.013C669.013 185.272 672.195 192.895 678.99 198.008C685.674 203.037 695.548 205.4 708.453 205.4V201.4ZM673.013 175.56C673.013 161.895 680.668 147.157 694.249 134.958C707.8 122.785 727.107 113.288 750.008 110.101L749.457 106.139C725.798 109.432 705.745 119.255 691.576 131.982C677.437 144.683 669.013 160.425 669.013 175.56H673.013ZM751.733 108.12V107.64H747.733V108.12H751.733ZM750.07 105.669C741.795 104.25 735.7 101.717 732.334 97.5106L729.211 100.009C733.525 105.403 740.87 108.15 749.395 109.611L750.07 105.669ZM730.398 96.7953C725.456 97.7368 720.783 98.2 717.093 98.2V102.2C721.082 102.2 726.009 101.703 731.147 100.725L730.398 96.7953ZM717.093 98.2C707.084 98.2 698.951 96.3663 693.38 92.7083C687.931 89.1296 684.773 83.7077 684.773 75.96H680.773C680.773 85.0123 684.574 91.7104 691.185 96.0517C697.674 100.314 706.701 102.2 717.093 102.2V98.2ZM684.773 75.96C684.773 63.8663 692.116 49.1083 706.016 35.4148C719.865 21.772 740.03 9.39308 765.174 2.03959L764.051 -1.7996C738.315 5.72691 717.56 18.428 703.209 32.5652C688.909 46.6517 680.773 62.3737 680.773 75.96H684.773ZM762.697 0.694692L763.417 3.09469L767.248 1.9453L766.528 -0.454698L762.697 0.694692ZM764.765 0.602305C739.737 8.0134 719.938 20.5429 706.369 34.2953C692.853 47.9939 685.333 63.1104 685.333 75.72H689.333C689.333 64.5696 696.092 50.4061 709.216 37.1047C722.287 23.8571 741.488 11.6666 765.9 4.43768L764.765 0.602305ZM685.333 75.72C685.333 84.1224 688.615 90.1842 694.484 94.0414C700.21 97.8044 708.172 99.32 717.333 99.32V95.32C708.493 95.32 701.455 93.8356 696.681 90.6986C692.05 87.6557 689.333 82.9175 689.333 75.72H685.333ZM717.333 99.32C720.831 99.32 725.044 98.8222 729.313 98.3478L728.872 94.3722C724.501 94.8578 720.554 95.32 717.333 95.32V99.32ZM730.881 95.4656C729.81 93.3235 729.173 90.9882 729.173 88.2H725.173C725.173 91.6518 725.975 94.5964 727.304 97.2544L730.881 95.4656ZM729.173 88.2C729.173 81.5249 731.954 73.9527 736.889 66.2542C741.807 58.5806 748.771 50.929 756.896 44.1341C773.204 30.4947 793.822 20.6 811.413 20.6V16.6C792.523 16.6 771.021 27.1053 754.329 41.0658C745.954 48.071 738.698 56.0194 733.521 64.0957C728.361 72.1473 725.173 80.4751 725.173 88.2H729.173ZM811.413 20.6C817.266 20.6 821.504 21.9241 824.238 24.096C826.906 26.2154 828.373 29.3225 828.373 33.48H832.373C832.373 28.2774 830.479 23.9446 826.727 20.964C823.041 18.0359 817.799 16.6 811.413 16.6V20.6ZM738.913 96.3863C756.856 92.1431 778.842 83.6668 796.39 72.7376C805.163 67.2732 812.909 61.1452 818.482 54.5566C824.049 47.9749 827.573 40.7819 827.573 33.24H823.573C823.573 39.4981 820.646 45.8051 815.428 51.9733C810.216 58.1348 802.842 64.0068 794.275 69.3423C777.143 80.0132 755.569 88.3369 737.992 92.4937L738.913 96.3863ZM827.573 33.24C827.573 29.4735 826.419 25.8809 823.569 23.2504C820.74 20.6388 816.524 19.24 810.933 19.24V23.24C815.901 23.24 819.005 24.4812 820.856 26.1896C822.686 27.8791 823.573 30.2865 823.573 33.24H827.573ZM810.933 19.24C794.108 19.24 775.453 29.7763 761.117 43.7477C746.799 57.7017 736.213 75.6487 736.213 91.08H740.213C740.213 77.2313 749.906 60.2583 763.908 46.6123C777.893 32.9837 795.597 23.24 810.933 23.24V19.24ZM736.213 91.08C736.213 92.2707 736.208 93.4144 736.491 94.8322L740.414 94.0478C740.217 93.0656 740.213 92.2893 740.213 91.08H736.213ZM890.863 201V203H892.863V201H890.863ZM842.875 201H840.875V203H842.875V201ZM842.875 191.449V189.449H840.875V191.449H842.875ZM862.035 191.449V193.449H864.035V191.449H862.035ZM862.035 57.0352H864.035V55.0352H862.035V57.0352ZM842.875 57.0352H840.875V59.0352H842.875V57.0352ZM842.875 47.4258V45.4258H840.875V47.4258H842.875ZM890.863 47.4258H892.863V45.4258H890.863V47.4258ZM890.863 85.8047H888.863V87.8047H890.863V85.8047ZM900.473 85.8047H902.473V83.8047H900.473V85.8047ZM900.473 114.633H898.473V116.633H900.473V114.633ZM910.023 114.633H912.023V112.633H910.023V114.633ZM910.023 143.402H908.023V145.402H910.023V143.402ZM919.633 143.402H921.633V141.402H919.633V143.402ZM919.633 172.23H917.633V174.23H919.633V172.23ZM929.242 172.23H931.242V170.23H929.242V172.23ZM929.242 201V203H931.242V201H929.242ZM910.023 201H908.023V203H910.023V201ZM910.023 172.23H912.023V170.23H910.023V172.23ZM900.473 172.23H898.473V174.23H900.473V172.23ZM900.473 143.402H902.473V141.402H900.473V143.402ZM890.863 143.402H888.863V145.402H890.863V143.402ZM890.863 114.633H892.863V112.633H890.863V114.633ZM881.254 114.633H879.254V116.633H881.254V114.633ZM881.254 85.8047H883.254V83.8047H881.254V85.8047ZM871.645 85.8047V83.8047H869.645V85.8047H871.645ZM871.645 191.449H869.645V193.449H871.645V191.449ZM890.863 191.449H892.863V189.449H890.863V191.449ZM1006.06 201V203H1008.06V201H1006.06ZM948.461 201H946.461V203H948.461V201ZM948.461 191.449V189.449H946.461V191.449H948.461ZM967.621 191.449V193.449H969.621V191.449H967.621ZM967.621 85.8047H969.621V83.8047H967.621V85.8047ZM958.07 85.8047H956.07V87.8047H958.07V85.8047ZM958.07 47.4258V45.4258H956.07V47.4258H958.07ZM1006.06 47.4258H1008.06V45.4258H1006.06V47.4258ZM1006.06 57.0352V59.0352H1008.06V57.0352H1006.06ZM986.84 57.0352V55.0352H984.84V57.0352H986.84ZM986.84 191.449H984.84V193.449H986.84V191.449ZM1006.06 191.449H1008.06V189.449H1006.06V191.449ZM958.07 114.633V116.633H960.07V114.633H958.07ZM948.461 114.633H946.461V116.633H948.461V114.633ZM948.461 85.8047V83.8047H946.461V85.8047H948.461ZM958.07 85.8047H960.07V83.8047H958.07V85.8047ZM948.461 143.402V145.402H950.461V143.402H948.461ZM938.852 143.402H936.852V145.402H938.852V143.402ZM938.852 114.633V112.633H936.852V114.633H938.852ZM948.461 114.633H950.461V112.633H948.461V114.633ZM938.852 172.23V174.23H940.852V172.23H938.852ZM929.242 172.23H927.242V174.23H929.242V172.23ZM929.242 143.402V141.402H927.242V143.402H929.242ZM938.852 143.402H940.852V141.402H938.852V143.402ZM890.863 199H842.875V203H890.863V199ZM844.875 201V191.449H840.875V201H844.875ZM842.875 193.449H862.035V189.449H842.875V193.449ZM864.035 191.449V57.0352H860.035V191.449H864.035ZM862.035 55.0352H842.875V59.0352H862.035V55.0352ZM844.875 57.0352V47.4258H840.875V57.0352H844.875ZM842.875 49.4258H890.863V45.4258H842.875V49.4258ZM888.863 47.4258V85.8047H892.863V47.4258H888.863ZM890.863 87.8047H900.473V83.8047H890.863V87.8047ZM898.473 85.8047V114.633H902.473V85.8047H898.473ZM900.473 116.633H910.023V112.633H900.473V116.633ZM908.023 114.633V143.402H912.023V114.633H908.023ZM910.023 145.402H919.633V141.402H910.023V145.402ZM917.633 143.402V172.23H921.633V143.402H917.633ZM919.633 174.23H929.242V170.23H919.633V174.23ZM927.242 172.23V201H931.242V172.23H927.242ZM929.242 199H910.023V203H929.242V199ZM912.023 201V172.23H908.023V201H912.023ZM910.023 170.23H900.473V174.23H910.023V170.23ZM902.473 172.23V143.402H898.473V172.23H902.473ZM900.473 141.402H890.863V145.402H900.473V141.402ZM892.863 143.402V114.633H888.863V143.402H892.863ZM890.863 112.633H881.254V116.633H890.863V112.633ZM883.254 114.633V85.8047H879.254V114.633H883.254ZM881.254 83.8047H871.645V87.8047H881.254V83.8047ZM869.645 85.8047V191.449H873.645V85.8047H869.645ZM871.645 193.449H890.863V189.449H871.645V193.449ZM888.863 191.449V201H892.863V191.449H888.863ZM1006.06 199H948.461V203H1006.06V199ZM950.461 201V191.449H946.461V201H950.461ZM948.461 193.449H967.621V189.449H948.461V193.449ZM969.621 191.449V85.8047H965.621V191.449H969.621ZM967.621 83.8047H958.07V87.8047H967.621V83.8047ZM960.07 85.8047V47.4258H956.07V85.8047H960.07ZM958.07 49.4258H1006.06V45.4258H958.07V49.4258ZM1004.06 47.4258V57.0352H1008.06V47.4258H1004.06ZM1006.06 55.0352H986.84V59.0352H1006.06V55.0352ZM984.84 57.0352V191.449H988.84V57.0352H984.84ZM986.84 193.449H1006.06V189.449H986.84V193.449ZM1004.06 191.449V201H1008.06V191.449H1004.06ZM958.07 112.633H948.461V116.633H958.07V112.633ZM950.461 114.633V85.8047H946.461V114.633H950.461ZM948.461 87.8047H958.07V83.8047H948.461V87.8047ZM956.07 85.8047V114.633H960.07V85.8047H956.07ZM948.461 141.402H938.852V145.402H948.461V141.402ZM940.852 143.402V114.633H936.852V143.402H940.852ZM938.852 116.633H948.461V112.633H938.852V116.633ZM946.461 114.633V143.402H950.461V114.633H946.461ZM938.852 170.23H929.242V174.23H938.852V170.23ZM931.242 172.23V143.402H927.242V172.23H931.242ZM929.242 145.402H938.852V141.402H929.242V145.402ZM936.852 143.402V172.23H940.852V143.402H936.852ZM1058.09 252.12L1056.64 250.74L1053.42 254.12H1058.09V252.12ZM1082.81 226.2V224.2H1081.95L1081.36 224.82L1082.81 226.2ZM1142.09 226.2L1143.58 224.864L1142.98 224.2H1142.09V226.2ZM1165.37 252.12V254.12H1169.85L1166.86 250.784L1165.37 252.12ZM1050.89 134.28L1052.28 132.839L1048.89 129.578V134.28H1050.89ZM1076.81 159.24H1078.81V158.389L1078.2 157.799L1076.81 159.24ZM1076.81 218.04L1078.15 219.521L1078.81 218.926V218.04H1076.81ZM1050.89 241.56H1048.89V246.075L1052.23 243.041L1050.89 241.56ZM1173.05 241.56L1171.67 243.007L1175.05 246.231V241.56H1173.05ZM1147.13 216.84H1145.13V217.696L1145.75 218.287L1147.13 216.84ZM1147.13 157.8L1145.79 156.319L1145.13 156.914V157.8H1147.13ZM1173.05 134.28H1175.05V129.765L1171.71 132.799L1173.05 134.28ZM1078.73 142.92L1077.48 144.482L1078.03 144.92H1078.73V142.92ZM1061.69 129.72L1060.49 128.117L1058.35 129.716L1060.49 131.32L1061.69 129.72ZM1078.73 117V115H1078.07L1077.53 115.397L1078.73 117ZM1144.25 117L1145.46 115.405L1144.92 115H1144.25V117ZM1161.05 129.72L1162.29 131.293L1164.32 129.691L1162.26 128.125L1161.05 129.72ZM1144.25 142.92V144.92H1144.94L1145.49 144.493L1144.25 142.92ZM1057.85 8.27999V6.27999H1053.18L1056.4 9.66031L1057.85 8.27999ZM1165.13 8.27999L1166.6 9.63144L1169.68 6.27999H1165.13V8.27999ZM1141.37 34.2V36.2H1142.25L1142.84 35.5514L1141.37 34.2ZM1082.57 34.2L1081.12 35.5803L1081.71 36.2H1082.57V34.2ZM1050.17 125.88H1048.17V130.52L1051.54 127.334L1050.17 125.88ZM1050.17 18.6L1051.51 17.112L1048.17 14.1154V18.6H1050.17ZM1076.09 41.88H1078.09V40.988L1077.43 40.392L1076.09 41.88ZM1076.09 101.4L1077.46 102.854L1078.09 102.262V101.4H1076.09ZM1172.33 18.6H1174.33V13.9289L1170.95 17.1527L1172.33 18.6ZM1172.33 125.88L1170.99 127.368L1174.33 130.365V125.88H1172.33ZM1146.41 102.6H1144.41V103.492L1145.07 104.088L1146.41 102.6ZM1146.41 43.32L1145.03 41.8727L1144.41 42.4637V43.32H1146.41ZM1059.54 253.5L1084.26 227.58L1081.36 224.82L1056.64 250.74L1059.54 253.5ZM1082.81 228.2H1142.09V224.2H1082.81V228.2ZM1140.6 227.536L1163.88 253.456L1166.86 250.784L1143.58 224.864L1140.6 227.536ZM1165.37 250.12H1058.09V254.12H1165.37V250.12ZM1049.5 135.721L1075.42 160.681L1078.2 157.799L1052.28 132.839L1049.5 135.721ZM1074.81 159.24V218.04H1078.81V159.24H1074.81ZM1075.47 216.559L1049.55 240.079L1052.23 243.041L1078.15 219.521L1075.47 216.559ZM1052.89 241.56V134.28H1048.89V241.56H1052.89ZM1174.43 240.113L1148.51 215.393L1145.75 218.287L1171.67 243.007L1174.43 240.113ZM1149.13 216.84V157.8H1145.13V216.84H1149.13ZM1148.47 159.281L1174.39 135.761L1171.71 132.799L1145.79 156.319L1148.47 159.281ZM1171.05 134.28V241.56H1175.05V134.28H1171.05ZM1079.98 141.358C1074.36 136.865 1068.67 132.452 1062.89 128.12L1060.49 131.32C1066.23 135.628 1071.9 140.015 1077.48 144.482L1079.98 141.358ZM1062.89 131.323L1079.93 118.603L1077.53 115.397L1060.49 128.117L1062.89 131.323ZM1078.73 119H1144.25V115H1078.73V119ZM1143.04 118.595L1159.84 131.315L1162.26 128.125L1145.46 115.405L1143.04 118.595ZM1159.81 128.147L1143.01 141.347L1145.49 144.493L1162.29 131.293L1159.81 128.147ZM1144.25 140.92H1078.73V144.92H1144.25V140.92ZM1057.85 10.28H1165.13V6.27999H1057.85V10.28ZM1163.66 6.92854L1139.9 32.8485L1142.84 35.5514L1166.6 9.63144L1163.66 6.92854ZM1141.37 32.2H1082.57V36.2H1141.37V32.2ZM1084.02 32.8197L1059.3 6.89968L1056.4 9.66031L1081.12 35.5803L1084.02 32.8197ZM1052.17 125.88V18.6H1048.17V125.88H1052.17ZM1048.83 20.0879L1074.75 43.3679L1077.43 40.392L1051.51 17.112L1048.83 20.0879ZM1074.09 41.88V101.4H1078.09V41.88H1074.09ZM1074.72 99.946L1048.8 124.426L1051.54 127.334L1077.46 102.854L1074.72 99.946ZM1170.33 18.6V125.88H1174.33V18.6H1170.33ZM1173.67 124.392L1147.75 101.112L1145.07 104.088L1170.99 127.368L1173.67 124.392ZM1148.41 102.6V43.32H1144.41V102.6H1148.41ZM1147.79 44.7673L1173.71 20.0473L1170.95 17.1527L1145.03 41.8727L1147.79 44.7673ZM1294.92 97.08L1294.47 95.1318L1292.24 95.6496L1293.05 97.7893L1294.92 97.08ZM1325.88 106.68L1327.88 106.833L1328.04 104.68H1325.88V106.68ZM1325.64 109.8V111.8H1327.49L1327.64 109.953L1325.64 109.8ZM1285.56 162.36L1285.04 164.29L1286.73 164.751L1287.41 163.135L1285.56 162.36ZM1282.92 161.64L1281.08 160.862L1280.19 162.968L1282.4 163.57L1282.92 161.64ZM1305.48 108.12L1305.76 110.101L1307.48 109.861V108.12H1305.48ZM1305.48 107.64H1307.48V105.954L1305.82 105.669L1305.48 107.64ZM1286.52 98.76L1288.08 97.5106L1287.33 96.5699L1286.15 96.7953L1286.52 98.76ZM1320.36 0.119997L1322.28 -0.454698L1321.71 -2.35711L1319.8 -1.7996L1320.36 0.119997ZM1321.08 2.51999L1321.65 4.43768L1323.57 3.8678L1323 1.9453L1321.08 2.51999ZM1284.84 96.36L1285.06 98.3478L1287.91 98.031L1286.63 95.4656L1284.84 96.36ZM1294.2 94.44L1292.24 94.8322L1292.65 96.8629L1294.66 96.3863L1294.2 94.44ZM1384.12 33.48C1384.12 40.0357 1381.05 46.6265 1375.58 53.057C1370.12 59.4807 1362.39 65.593 1353.42 71.1388C1335.48 82.2301 1312.89 90.8545 1294.47 95.1318L1295.37 99.0281C1314.16 94.6655 1337.17 85.8899 1355.52 74.5412C1364.7 68.867 1372.8 62.4993 1378.63 55.648C1384.45 48.8035 1388.12 41.3243 1388.12 33.48H1384.12ZM1293.05 97.7893C1294.61 101.892 1297.67 104.661 1302.1 106.357C1306.43 108.019 1312.12 108.68 1319.16 108.68V104.68C1312.28 104.68 1307.18 104.021 1303.53 102.623C1299.97 101.259 1297.88 99.2277 1296.79 96.3707L1293.05 97.7893ZM1319.16 108.68H1325.88V104.68H1319.16V108.68ZM1323.89 106.527L1323.65 109.647L1327.64 109.953L1327.88 106.833L1323.89 106.527ZM1325.64 107.8H1319.64V111.8H1325.64V107.8ZM1319.64 107.8C1288.32 107.8 1267.84 120.249 1255.23 135.274C1242.69 150.208 1237.96 167.641 1237.96 177.72H1241.96C1241.96 168.599 1246.35 152.072 1258.29 137.846C1270.16 123.711 1289.52 111.8 1319.64 111.8V107.8ZM1237.96 177.72C1237.96 185.836 1240.03 192.223 1244.62 196.547C1249.19 200.847 1255.91 202.76 1264.44 202.76V198.76C1256.42 198.76 1250.89 196.953 1247.36 193.633C1243.86 190.337 1241.96 185.204 1241.96 177.72H1237.96ZM1264.44 202.76C1285.27 202.76 1307.12 193.479 1323.73 180.433C1340.26 167.446 1352.12 150.311 1352.12 134.28H1348.12C1348.12 148.489 1337.42 164.594 1321.26 177.287C1305.17 189.921 1284.17 198.76 1264.44 198.76V202.76ZM1352.12 134.28C1352.12 129.29 1350.54 125.07 1347.46 122.101C1344.4 119.141 1340.07 117.64 1335 117.64V121.64C1339.29 121.64 1342.53 122.899 1344.68 124.979C1346.83 127.05 1348.12 130.15 1348.12 134.28H1352.12ZM1335 117.64C1322.93 117.64 1312.32 123.362 1303.68 131.635C1295.04 139.905 1288.24 150.833 1283.72 161.585L1287.41 163.135C1291.77 152.767 1298.29 142.335 1306.45 134.525C1314.6 126.718 1324.27 121.64 1335 121.64V117.64ZM1286.09 160.43L1283.45 159.71L1282.4 163.57L1285.04 164.29L1286.09 160.43ZM1284.77 162.418C1289.24 151.817 1296.12 140.905 1304.82 132.673C1313.51 124.444 1323.91 119 1335.48 119V115C1322.58 115 1311.25 121.076 1302.07 129.767C1292.89 138.455 1285.72 149.863 1281.08 160.862L1284.77 162.418ZM1335.48 119C1340.53 119 1344.83 120.403 1347.84 122.962C1350.8 125.486 1352.68 129.287 1352.68 134.52H1356.68C1356.68 128.233 1354.37 123.274 1350.43 119.918C1346.53 116.597 1341.23 115 1335.48 115V119ZM1352.68 134.52C1352.68 141.627 1349.88 149.363 1344.85 157.046C1339.82 164.714 1332.66 172.214 1324.15 178.809C1307.09 192.023 1284.89 201.4 1264.2 201.4V205.4C1286 205.4 1309.04 195.577 1326.6 181.971C1335.39 175.156 1342.89 167.341 1348.19 159.237C1353.49 151.147 1356.68 142.653 1356.68 134.52H1352.68ZM1264.2 201.4C1251.67 201.4 1242.82 199.083 1237.14 194.812C1231.58 190.625 1228.76 184.328 1228.76 175.56H1224.76C1224.76 185.272 1227.94 192.895 1234.74 198.008C1241.42 203.037 1251.3 205.4 1264.2 205.4V201.4ZM1228.76 175.56C1228.76 161.895 1236.42 147.157 1250 134.958C1263.55 122.785 1282.86 113.288 1305.76 110.101L1305.21 106.139C1281.55 109.432 1261.49 119.255 1247.33 131.982C1233.19 144.683 1224.76 160.425 1224.76 175.56H1228.76ZM1307.48 108.12V107.64H1303.48V108.12H1307.48ZM1305.82 105.669C1297.55 104.25 1291.45 101.717 1288.08 97.5106L1284.96 100.009C1289.28 105.403 1296.62 108.15 1305.14 109.611L1305.82 105.669ZM1286.15 96.7953C1281.21 97.7368 1276.53 98.2 1272.84 98.2V102.2C1276.83 102.2 1281.76 101.703 1286.9 100.725L1286.15 96.7953ZM1272.84 98.2C1262.83 98.2 1254.7 96.3663 1249.13 92.7083C1243.68 89.1296 1240.52 83.7077 1240.52 75.96H1236.52C1236.52 85.0123 1240.32 91.7104 1246.93 96.0517C1253.42 100.314 1262.45 102.2 1272.84 102.2V98.2ZM1240.52 75.96C1240.52 63.8663 1247.87 49.1083 1261.77 35.4148C1275.62 21.772 1295.78 9.39308 1320.92 2.03959L1319.8 -1.7996C1294.07 5.72691 1273.31 18.428 1258.96 32.5652C1244.66 46.6517 1236.52 62.3737 1236.52 75.96H1240.52ZM1318.45 0.694692L1319.17 3.09469L1323 1.9453L1322.28 -0.454698L1318.45 0.694692ZM1320.51 0.602305C1295.49 8.0134 1275.69 20.5429 1262.12 34.2953C1248.6 47.9939 1241.08 63.1104 1241.08 75.72H1245.08C1245.08 64.5696 1251.84 50.4061 1264.97 37.1047C1278.04 23.8571 1297.24 11.6666 1321.65 4.43768L1320.51 0.602305ZM1241.08 75.72C1241.08 84.1224 1244.36 90.1842 1250.23 94.0414C1255.96 97.8044 1263.92 99.32 1273.08 99.32V95.32C1264.24 95.32 1257.2 93.8356 1252.43 90.6986C1247.8 87.6557 1245.08 82.9175 1245.08 75.72H1241.08ZM1273.08 99.32C1276.58 99.32 1280.79 98.8222 1285.06 98.3478L1284.62 94.3722C1280.25 94.8578 1276.3 95.32 1273.08 95.32V99.32ZM1286.63 95.4656C1285.56 93.3235 1284.92 90.9882 1284.92 88.2H1280.92C1280.92 91.6518 1281.72 94.5964 1283.05 97.2544L1286.63 95.4656ZM1284.92 88.2C1284.92 81.5249 1287.7 73.9527 1292.64 66.2542C1297.56 58.5806 1304.52 50.929 1312.65 44.1341C1328.95 30.4947 1349.57 20.6 1367.16 20.6V16.6C1348.27 16.6 1326.77 27.1053 1310.08 41.0658C1301.7 48.071 1294.45 56.0194 1289.27 64.0957C1284.11 72.1473 1280.92 80.4751 1280.92 88.2H1284.92ZM1367.16 20.6C1373.02 20.6 1377.25 21.9241 1379.99 24.096C1382.66 26.2154 1384.12 29.3225 1384.12 33.48H1388.12C1388.12 28.2774 1386.23 23.9446 1382.48 20.964C1378.79 18.0359 1373.55 16.6 1367.16 16.6V20.6ZM1294.66 96.3863C1312.61 92.1431 1334.59 83.6668 1352.14 72.7376C1360.91 67.2732 1368.66 61.1452 1374.23 54.5566C1379.8 47.9749 1383.32 40.7819 1383.32 33.24H1379.32C1379.32 39.4981 1376.4 45.8051 1371.18 51.9733C1365.97 58.1348 1358.59 64.0068 1350.03 69.3423C1332.89 80.0132 1311.32 88.3369 1293.74 92.4937L1294.66 96.3863ZM1383.32 33.24C1383.32 29.4735 1382.17 25.8809 1379.32 23.2504C1376.49 20.6388 1372.27 19.24 1366.68 19.24V23.24C1371.65 23.24 1374.76 24.4812 1376.61 26.1896C1378.44 27.8791 1379.32 30.2865 1379.32 33.24H1383.32ZM1366.68 19.24C1349.86 19.24 1331.2 29.7763 1316.87 43.7477C1302.55 57.7017 1291.96 75.6487 1291.96 91.08H1295.96C1295.96 77.2313 1305.66 60.2583 1319.66 46.6123C1333.64 32.9837 1351.35 23.24 1366.68 23.24V19.24ZM1291.96 91.08C1291.96 92.2707 1291.96 93.4144 1292.24 94.8322L1296.16 94.0478C1295.97 93.0656 1295.96 92.2893 1295.96 91.08H1291.96ZM1572.86 201V203H1576.64L1574.51 199.872L1572.86 201ZM1528.7 201L1527.04 202.12L1527.63 203H1528.7V201ZM1488.14 141L1489.79 139.88L1489.2 139H1488.14V141ZM1446.86 141V139H1444.86V141H1446.86ZM1446.86 201V203H1448.86V201H1446.86ZM1409.42 201H1407.42V203H1409.42V201ZM1409.42 37.8V35.8H1407.42V37.8H1409.42ZM1529.9 138.12L1529.37 136.19L1526.66 136.925L1528.24 139.248L1529.9 138.12ZM1446.86 69.96V67.96H1444.86V69.96H1446.86ZM1446.86 108.84H1444.86V110.84H1446.86V108.84ZM1572.86 199H1528.7V203H1572.86V199ZM1530.35 199.88L1489.79 139.88L1486.48 142.12L1527.04 202.12L1530.35 199.88ZM1488.14 139H1446.86V143H1488.14V139ZM1444.86 141V201H1448.86V141H1444.86ZM1446.86 199H1409.42V203H1446.86V199ZM1411.42 201V37.8H1407.42V201H1411.42ZM1409.42 39.8H1506.62V35.8H1409.42V39.8ZM1506.62 39.8C1525.29 39.8 1539.32 44.2347 1548.67 52.4983C1557.98 60.7256 1562.94 73.0156 1562.94 89.4H1566.94C1566.94 72.1844 1561.7 58.6744 1551.32 49.5017C1540.99 40.3653 1525.86 35.8 1506.62 35.8V39.8ZM1562.94 89.4C1562.94 102.055 1560.01 112.234 1554.43 119.971C1548.87 127.694 1540.53 133.167 1529.37 136.19L1530.42 140.05C1542.3 136.833 1551.48 130.906 1557.68 122.309C1563.86 113.726 1566.94 102.665 1566.94 89.4H1562.94ZM1528.24 139.248L1571.2 202.128L1574.51 199.872L1531.55 136.992L1528.24 139.248ZM1444.86 69.96V108.84H1448.86V69.96H1444.86ZM1446.86 110.84H1502.54V106.84H1446.86V110.84ZM1502.54 110.84C1511 110.84 1517.61 109.256 1522.12 105.628C1526.72 101.926 1528.78 96.3994 1528.78 89.4H1524.78C1524.78 95.6006 1522.99 99.7941 1519.61 102.512C1516.14 105.304 1510.63 106.84 1502.54 106.84V110.84ZM1528.78 89.4C1528.78 82.4006 1526.72 76.8741 1522.12 73.1717C1517.61 69.5438 1511 67.96 1502.54 67.96V71.96C1510.63 71.96 1516.14 73.4962 1519.61 76.2883C1522.99 79.0059 1524.78 83.1994 1524.78 89.4H1528.78ZM1502.54 67.96H1446.86V71.96H1502.54V67.96Z" fill="black"/>
</svg>
